<svg xmlns="http://www.w3.org/2000/svg" version="1.1" xmlns:xlink="http://www.w3.org/1999/xlink" xmlns:svgjs="http://svgjs.dev/svgjs" width="1940" height="900" preserveAspectRatio="none" viewBox="0 0 1940 900"><g mask="url(&quot;#SvgjsMask1552&quot;)" fill="none"><rect width="1940" height="900" x="0" y="0" fill="url(&quot;#SvgjsLinearGradient1553&quot;)"></rect><path d="M982.91 1044.72C1174.59 1019.69 1287.55 580.26 1600.56 579.57 1913.57 578.88 2050.66 835.29 2218.21 840.57" stroke="rgba(15, 118, 110, 0.29)" stroke-width="2"></path><path d="M595.29 1039.07C836.12 997.73 913.06 431.43 1337.94 403.6 1762.82 375.77 1888.45 207.29 2080.59 205.6" stroke="rgba(15, 118, 110, 0.29)" stroke-width="2"></path><path d="M1079.65 952.01C1301.97 822.41 1295.14 81.09 1591.67 59.05 1888.21 37.01 1957.15 337.39 2103.7 347.05" stroke="rgba(15, 118, 110, 0.29)" stroke-width="2"></path><path d="M910.2 919.27C1072.26 829.26 937.67 326.21 1288.58 281.58 1639.48 236.95 1849.2 76.44 2045.33 74.58" stroke="rgba(15, 118, 110, 0.29)" stroke-width="2"></path><path d="M251.16 1047.26C424.8 1035.67 548.74 705.69 857.15 704.67 1165.55 703.65 1160.14 817.17 1463.13 817.17 1766.13 817.17 1915.04 705.15 2069.12 704.67" stroke="rgba(15, 118, 110, 0.29)" stroke-width="2"></path></g><defs><mask id="SvgjsMask1552"><rect width="1940" height="900" fill="#ffffff"></rect></mask><linearGradient x1="50%" y1="100%" x2="50%" y2="0%" gradientUnits="userSpaceOnUse" id="SvgjsLinearGradient1553"><stop stop-color="rgba(14, 42, 71, 1)" offset="0"></stop><stop stop-color="rgba(15, 118, 110, 0)" offset="0.59"></stop></linearGradient></defs></svg>